<svg width="1280" height="760" viewBox="0 0 1280 760" fill="none" xmlns="http://www.w3.org/2000/svg" role="img" aria-labelledby="title desc">
  <title id="title">Prévia do dashboard StageFlow</title>
  <desc id="desc">Representação visual do painel administrativo com cards, gráficos e lista de atividades.</desc>
  <rect width="1280" height="760" rx="18" fill="#101114"/>
  <rect x="22" y="22" width="244" height="716" rx="10" fill="#181B21" stroke="#303640"/>
  <rect x="46" y="48" width="44" height="44" rx="8" fill="#20242C"/>
  <path d="M57 75C57 68.4 62.4 63 69 63H82" stroke="#71E0FF" stroke-width="4" stroke-linecap="round"/>
  <path d="M57 64H69C76.2 64 82 69.8 82 77" stroke="#52D273" stroke-width="4" stroke-linecap="round"/>
  <text x="104" y="67" fill="#F5F7FB" font-family="Inter, Arial" font-size="18" font-weight="700">StageFlow</text>
  <text x="104" y="88" fill="#7F8897" font-family="Inter, Arial" font-size="12">Gestão de Estágios</text>
  <g fill="#20242C" stroke="#303640">
    <rect x="46" y="128" width="188" height="40" rx="8"/>
    <rect x="46" y="178" width="188" height="40" rx="8"/>
    <rect x="46" y="228" width="188" height="40" rx="8"/>
    <rect x="46" y="278" width="188" height="40" rx="8"/>
    <rect x="46" y="328" width="188" height="40" rx="8"/>
  </g>
  <rect x="294" y="28" width="960" height="88" rx="10" fill="#15171B" stroke="#2D333D"/>
  <text x="326" y="64" fill="#7F8897" font-family="Inter, Arial" font-size="14">Visão geral</text>
  <text x="326" y="92" fill="#F5F7FB" font-family="Inter, Arial" font-size="26" font-weight="700">Dashboard administrativo</text>
  <g>
    <rect x="294" y="142" width="220" height="128" rx="8" fill="#191C22" stroke="#303640"/>
    <rect x="536" y="142" width="220" height="128" rx="8" fill="#191C22" stroke="#303640"/>
    <rect x="778" y="142" width="220" height="128" rx="8" fill="#191C22" stroke="#303640"/>
    <rect x="1020" y="142" width="234" height="128" rx="8" fill="#191C22" stroke="#303640"/>
    <text x="318" y="178" fill="#A5ADBA" font-family="Inter, Arial" font-size="14">Estagiários</text>
    <text x="318" y="226" fill="#F5F7FB" font-family="Inter, Arial" font-size="44" font-weight="800">5</text>
    <text x="560" y="178" fill="#A5ADBA" font-family="Inter, Arial" font-size="14">Supervisores</text>
    <text x="560" y="226" fill="#F5F7FB" font-family="Inter, Arial" font-size="44" font-weight="800">4</text>
    <text x="802" y="178" fill="#A5ADBA" font-family="Inter, Arial" font-size="14">Atividades</text>
    <text x="802" y="226" fill="#F5F7FB" font-family="Inter, Arial" font-size="44" font-weight="800">8</text>
    <text x="1044" y="178" fill="#A5ADBA" font-family="Inter, Arial" font-size="14">Horas</text>
    <text x="1044" y="226" fill="#F5F7FB" font-family="Inter, Arial" font-size="44" font-weight="800">34h</text>
  </g>
  <rect x="294" y="296" width="460" height="246" rx="8" fill="#191C22" stroke="#303640"/>
  <text x="320" y="332" fill="#F5F7FB" font-family="Inter, Arial" font-size="18" font-weight="700">Horas por estagiário</text>
  <rect x="326" y="454" width="44" height="54" rx="6" fill="#39C7F4"/>
  <rect x="390" y="420" width="44" height="88" rx="6" fill="#52D273"/>
  <rect x="454" y="478" width="44" height="30" rx="6" fill="#FFBD4A"/>
  <rect x="518" y="392" width="44" height="116" rx="6" fill="#8DA2FF"/>
  <rect x="582" y="442" width="44" height="66" rx="6" fill="#FF6B82"/>
  <rect x="794" y="296" width="460" height="246" rx="8" fill="#191C22" stroke="#303640"/>
  <text x="820" y="332" fill="#F5F7FB" font-family="Inter, Arial" font-size="18" font-weight="700">Meta geral de horas</text>
  <circle cx="1024" cy="420" r="76" stroke="#303640" stroke-width="18"/>
  <path d="M1024 344A76 76 0 1 1 964 466" stroke="#71E0FF" stroke-width="18" stroke-linecap="round"/>
  <text x="989" y="429" fill="#F5F7FB" font-family="Inter, Arial" font-size="28" font-weight="800">9%</text>
  <rect x="294" y="568" width="960" height="150" rx="8" fill="#191C22" stroke="#303640"/>
  <text x="320" y="604" fill="#F5F7FB" font-family="Inter, Arial" font-size="18" font-weight="700">Últimas atividades</text>
  <rect x="320" y="630" width="900" height="1" fill="#303640"/>
  <text x="320" y="666" fill="#A5ADBA" font-family="Inter, Arial" font-size="14">15 jun · Ana Beatriz Lima · Fechamento parcial do relatório de horas</text>
  <text x="320" y="696" fill="#A5ADBA" font-family="Inter, Arial" font-size="14">12 jun · Helena Duarte · Ajustes de acessibilidade visual</text>
</svg>
